<svg width="802" height="64" viewBox="0 0 802 64" fill="none" xmlns="http://www.w3.org/2000/svg">
  <rect y="42" width="16" height="22" fill="#7CA7C7"/>
  <rect x="16" y="34" width="18" height="30" fill="#56A4D8"/>
  <rect x="34" y="38" width="10" height="26" fill="#5E8C71"/>
  <rect x="44" y="30" width="22" height="34" fill="#8A5B3E"/>
  <rect x="66" y="40" width="20" height="24" fill="#6AB097"/>
  <rect x="86" y="35" width="11" height="29" fill="#95C1DE"/>
  <rect x="97" y="28" width="14" height="36" fill="#477E5E"/>
  <rect x="111" y="43" width="24" height="21" fill="#84B4D1"/>
  <rect x="135" y="33" width="13" height="31" fill="#4E90C0"/>
  <rect x="148" y="37" width="25" height="27" fill="#6C9F88"/>
  <rect x="173" y="31" width="15" height="33" fill="#8A5B3E"/>
  <rect x="188" y="42" width="20" height="22" fill="#7CA7C7"/>
  <rect x="208" y="34" width="18" height="30" fill="#56A4D8"/>
  <rect x="226" y="38" width="10" height="26" fill="#5E8C71"/>
  <rect x="236" y="30" width="22" height="34" fill="#8A5B3E"/>
  <rect x="258" y="40" width="20" height="24" fill="#6AB097"/>
  <rect x="278" y="35" width="11" height="29" fill="#95C1DE"/>
  <rect x="289" y="28" width="14" height="36" fill="#477E5E"/>
  <rect x="303" y="43" width="24" height="21" fill="#84B4D1"/>
  <rect x="327" y="33" width="13" height="31" fill="#4E90C0"/>
  <rect x="340" y="37" width="25" height="27" fill="#6C9F88"/>
  <rect x="365" y="31" width="15" height="33" fill="#8A5B3E"/>
  <rect x="380" y="42" width="20" height="22" fill="#7CA7C7"/>
  <rect x="400" y="34" width="18" height="30" fill="#56A4D8"/>
  <rect x="418" y="38" width="10" height="26" fill="#5E8C71"/>
  <rect x="428" y="30" width="22" height="34" fill="#8A5B3E"/>
  <rect x="450" y="40" width="20" height="24" fill="#6AB097"/>
  <rect x="470" y="35" width="11" height="29" fill="#95C1DE"/>
  <rect x="481" y="28" width="14" height="36" fill="#477E5E"/>
  <rect x="495" y="43" width="24" height="21" fill="#84B4D1"/>
  <rect x="519" y="33" width="13" height="31" fill="#4E90C0"/>
  <rect x="532" y="37" width="25" height="27" fill="#6C9F88"/>
  <rect x="557" y="31" width="15" height="33" fill="#8A5B3E"/>
  <rect x="572" y="42" width="20" height="22" fill="#7CA7C7"/>
  <rect x="592" y="34" width="18" height="30" fill="#56A4D8"/>
  <rect x="610" y="38" width="10" height="26" fill="#5E8C71"/>
  <rect x="620" y="30" width="22" height="34" fill="#8A5B3E"/>
  <rect x="642" y="40" width="20" height="24" fill="#6AB097"/>
  <rect x="662" y="35" width="11" height="29" fill="#95C1DE"/>
  <rect x="673" y="28" width="14" height="36" fill="#477E5E"/>
  <rect x="687" y="43" width="24" height="21" fill="#84B4D1"/>
  <rect x="711" y="33" width="13" height="31" fill="#4E90C0"/>
  <rect x="724" y="37" width="25" height="27" fill="#6C9F88"/>
  <rect x="749" y="31" width="15" height="33" fill="#8A5B3E"/>
  <rect x="764" y="42" width="20" height="22" fill="#7CA7C7"/>
  <rect x="784" y="34" width="18" height="30" fill="#56A4D8"/>
</svg>
