<svg width="35" height="48" viewBox="0 0 35 48" fill="none" xmlns="http://www.w3.org/2000/svg">
<g clip-path="url(#clip0_2578_1207)">
<path d="M16.8585 2.05397C16.8585 2.05397 27.0548 0.543277 30.4536 0.0388217C31.7582 -0.1552 33.3331 0.366651 33.6966 1.65656C34.3449 3.95671 34.084 11.2118 34.084 11.2118C34.084 11.2118 32.7314 7.48656 28.8294 5.60924C24.7676 3.65565 16.8545 2.0553 16.8545 2.0553H16.8572L16.8585 2.05397Z" fill="#0E0B0F"/>
<path d="M2.78154 21.9809C-2.15753 32.4139 -0.341653 43.7434 6.8393 47.2893C6.84596 47.292 6.85261 47.296 6.85794 47.2987C12.89 50.4043 22.7761 42.6957 26.312 35.0981L22.7535 45.7826H31.4747V26.6695C31.4747 18.8779 30.2286 12.1527 24.7304 9.51267C17.0822 5.83965 7.57683 11.8597 2.78287 21.9795L2.78154 21.9809ZM12.1551 40.1051C4.48692 40.1814 7.41841 26.2882 7.41841 26.2882L12.0686 25.6874C11.9834 26.1436 11.9368 26.6254 11.9368 27.1218C11.9368 30.1793 13.6435 32.6574 15.7509 32.6574C17.8583 32.6574 19.5637 30.1779 19.5637 27.1218C19.5637 26.2788 19.4346 25.4773 19.2003 24.7641L24.6346 24.0616C24.6346 24.0616 19.8233 40.0249 12.1551 40.1038V40.1051Z" fill="#0E0B0F"/>
</g>
<defs>
<clipPath id="clip0_2578_1207">
<rect width="34.311" height="48.0049" fill="white"/>
</clipPath>
</defs>
</svg>
