<svg width="34" height="48" viewBox="0 0 34 48" fill="none" xmlns="http://www.w3.org/2000/svg">
<path d="M30.8938 8.27576C29.5316 5.96311 27.6245 4.16196 25.1833 2.86687C22.7476 1.58267 19.9305 0.929688 16.732 0.929688C13.5334 0.929688 10.7163 1.57723 8.27514 2.86687C5.83945 4.16196 3.93775 5.96311 2.57551 8.27576C1.68732 9.77218 1.08794 11.421 0.777344 13.2058H9.67008C9.80085 12.6943 9.98612 12.2154 10.2041 11.7583C10.8198 10.485 11.6862 9.50011 12.8141 8.81447C13.9421 8.12884 15.2498 7.78058 16.7374 7.78058C18.225 7.78058 19.5545 8.12884 20.6716 8.81447C21.7886 9.50011 22.6495 10.485 23.2653 11.7583C23.4832 12.21 23.6631 12.6943 23.8047 13.2058H32.6975C32.3814 11.4155 31.7875 9.76674 30.8993 8.27576H30.8938Z" fill="black"/>
<path d="M33.4731 46.7756C32.5032 45.4697 31.9256 43.859 31.9147 42.1122V32.0672C31.9147 23.2791 24.7547 16.1289 15.9546 16.1289C7.15451 16.1289 0 23.2791 0 32.0672C0 36.736 0.58849 39.9356 1.90714 42.4387C3.24214 44.9745 6.03747 48 11.7643 48C15.8511 48 21.1529 45.6057 24.4496 42.0469C24.4496 43.8154 25.0272 45.4533 26.008 46.7702H31.9092H33.4676L33.4731 46.7756ZM20.4119 37.6066C17.78 39.3915 14.3853 40.5505 11.7643 40.5505C9.53026 40.5505 8.91453 39.7397 8.51131 38.9725C7.80839 37.6339 7.4651 35.3756 7.4651 32.0672C7.4651 27.3929 11.2739 23.5893 15.9546 23.5893C20.6353 23.5893 24.4441 27.3929 24.4441 32.0672C24.4441 33.8193 22.9348 35.8871 20.4064 37.6066H20.4119Z" fill="#FFB607"/>
<path d="M15.9628 35.4348C18.0543 35.4348 19.7499 33.7416 19.7499 31.653C19.7499 29.5643 18.0543 27.8711 15.9628 27.8711C13.8713 27.8711 12.1758 29.5643 12.1758 31.653C12.1758 33.7416 13.8713 35.4348 15.9628 35.4348Z" fill="black"/>
</svg>
