<svg id="predinhos" width="354" height="91" viewBox="0 0 354 91" fill="none" xmlns="http://www.w3.org/2000/svg">
    <path d="M95.9922 47.9102H35.1484V62.7179H95.9922V47.9102Z" fill="#7B9B7E"/>
    <path d="M114.087 47.9102H96V62.7179H114.087V47.9102Z" fill="#428C60"/>
    <path d="M89.8408 51.2422H88.6992V54.0025H89.8408V51.2422Z" fill="#565656"/>
    <path d="M91.2431 51.2422H90.1016V54.0025H91.2431V51.2422Z" fill="#565656"/>
    <path d="M92.6923 51.2422H91.5508V54.0025H92.6923V51.2422Z" fill="#565656"/>
    <path d="M94.0908 51.2422H92.9492V54.0025H94.0908V51.2422Z" fill="#565656"/>
    <path d="M91.2463 49.9258H88.6992V50.8724H91.2463V49.9258Z" fill="#565656"/>
    <path d="M94.0979 49.9258H91.5508V50.8724H94.0979V49.9258Z" fill="#565656"/>
    <path d="M89.8408 59.6719H88.6992V62.4322H89.8408V59.6719Z" fill="#565656"/>
    <path d="M91.2431 59.6719H90.1016V62.4322H91.2431V59.6719Z" fill="#565656"/>
    <path d="M92.6923 59.6719H91.5508V62.4322H92.6923V59.6719Z" fill="#565656"/>
    <path d="M94.0908 59.6719H92.9492V62.4322H94.0908V59.6719Z" fill="#565656"/>
    <path d="M91.2463 58.3652H88.6992V59.3118H91.2463V58.3652Z" fill="#565656"/>
    <path d="M94.0979 58.3652H91.5508V59.3118H94.0979V58.3652Z" fill="#565656"/>
    <path d="M60.6135 50.5645H58.0664V54.6771H60.6135V50.5645Z" fill="#565656"/>
    <path d="M55.219 50.5645H52.6719V54.6771H55.219V50.5645Z" fill="#565656"/>
    <path d="M49.8167 50.5645H47.2695V54.6771H49.8167V50.5645Z" fill="#565656"/>
    <path d="M44.4221 50.5645H41.875V54.6771H44.4221V50.5645Z" fill="#565656"/>
    <path d="M39.0159 50.5645H36.4688V54.6771H39.0159V50.5645Z" fill="#565656"/>
    <path d="M84.7542 50.5645H82.207V54.6771H84.7542V50.5645Z" fill="#565656"/>
    <path d="M79.3596 50.5645H76.8125V54.6771H79.3596V50.5645Z" fill="#565656"/>
    <path d="M73.9534 50.5645H71.4062V54.6771H73.9534V50.5645Z" fill="#565656"/>
    <path d="M68.5588 50.5645H66.0117V54.6771H68.5588V50.5645Z" fill="#565656"/>
    <path d="M63.1565 50.5645H60.6094V54.6771H63.1565V50.5645Z" fill="#565656"/>
    <path d="M67.3403 37.2676H57.707V45.9144H67.3403V37.2676Z" fill="#2F8E56"/>
    <path d="M66.0118 54H5.16797V62.7224H66.0118V54Z" fill="#90B796"/>
    <path d="M84.9482 54H66.0117V62.7224H84.9482V54Z" fill="#428C60"/>
    <path d="M64.2698 56.6465H61.7227V60.7591H64.2698V56.6465Z" fill="#565656"/>
    <path d="M59.2581 56.6465H56.7109V60.7591H59.2581V56.6465Z" fill="#565656"/>
    <path d="M54.2424 56.6465H51.6953V60.7591H54.2424V56.6465Z" fill="#565656"/>
    <path d="M49.2229 56.6465H46.6758V60.7591H49.2229V56.6465Z" fill="#565656"/>
    <path d="M44.2112 56.6465H41.6641V60.7591H44.2112V56.6465Z" fill="#565656"/>
    <path d="M29.1721 56.6465H26.625V60.7591H29.1721V56.6465Z" fill="#565656"/>
    <path d="M34.3282 56.6465H33.0547V58.7028H34.3282V56.6465Z" fill="#565656"/>
    <path d="M37.7853 56.6465H36.5117V58.7028H37.7853V56.6465Z" fill="#565656"/>
    <path d="M24.1565 56.6465H21.6094V60.7591H24.1565V56.6465Z" fill="#565656"/>
    <path d="M19.1409 56.6465H16.5938V60.7591H19.1409V56.6465Z" fill="#565656"/>
    <path d="M14.1331 56.6465H11.5859V60.7591H14.1331V56.6465Z" fill="#565656"/>
    <path d="M9.12525 56.6465H6.57812V60.7591H9.12525V56.6465Z" fill="#565656"/>
    <path d="M66.0118 53.9844H5.16797V55.1657H66.0118V53.9844Z" fill="#44774A"/>
    <path d="M114.08 47.9102H35.1484V49.0914H114.08V47.9102Z" fill="#44774A"/>
    <path d="M84.8861 53.9844H66.0117V55.1657H84.8861V53.9844Z" fill="#44774A"/>
    <path d="M57.7036 37.2676H48.0703V45.9144H57.7036V37.2676Z" fill="#44774A"/>
    <path d="M67.3402 45.9141H64.8125V54.0001H67.3402V45.9141Z" fill="#2F8E56"/>
    <path d="M62.7039 45.9141H57.6523V54.0001H62.7039V45.9141Z" fill="#2F8E56"/>
    <path d="M57.6495 45.9141H57.1836V54.0001H57.6495V45.9141Z" fill="#44774A"/>
    <path d="M64.8058 45.9141H64.3398V54.0001H64.8058V45.9141Z" fill="#44774A"/>
    <path d="M53.1297 45.9141H48.0781V54.0001H53.1297V45.9141Z" fill="#2F8E56"/>
    <path d="M48.5441 45.9141H48.0781V54.0001H48.5441V45.9141Z" fill="#44774A"/>
    <path d="M312.405 19.0879H206.562V44.8471H312.405V19.0879Z" fill="#936E67"/>
    <path d="M275.691 19.0879H257.211V44.8471H275.691V19.0879Z" fill="#A5947C"/>
    <path d="M243.01 19.0879H225.266V44.8471H243.01V19.0879Z" fill="#A5947C"/>
    <path d="M345.344 19.0879H312.402V43.0246H345.344V19.0879Z" fill="#6D423E"/>
    <path d="M301.693 24.873H299.707V29.6748H301.693V24.873Z" fill="#565656"/>
    <path d="M304.142 24.873H302.156V29.6748H304.142V24.873Z" fill="#565656"/>
    <path d="M306.654 24.873H304.668V29.6748H306.654V24.873Z" fill="#565656"/>
    <path d="M309.095 24.873H307.109V29.6748H309.095V24.873Z" fill="#565656"/>
    <path d="M304.138 22.5879H299.707V24.2346H304.138V22.5879Z" fill="#565656"/>
    <path d="M309.099 22.5879H304.668V24.2346H309.099V22.5879Z" fill="#565656"/>
    <path d="M301.693 39.543H299.707V44.3447H301.693V39.543Z" fill="#565656"/>
    <path d="M304.142 39.543H302.156V44.3447H304.142V39.543Z" fill="#565656"/>
    <path d="M306.654 39.543H304.668V44.3447H306.654V39.543Z" fill="#565656"/>
    <path d="M309.095 39.543H307.109V44.3447H309.095V39.543Z" fill="#565656"/>
    <path d="M304.138 37.2676H299.707V38.9143H304.138V37.2676Z" fill="#565656"/>
    <path d="M309.099 37.2676H304.668V38.9143H309.099V37.2676Z" fill="#565656"/>
    <path d="M250.857 23.6953H246.426V30.8495H250.857V23.6953Z" fill="#565656"/>
    <path d="M241.462 23.6953H237.031V30.8495H241.462V23.6953Z" fill="#565656"/>
    <path d="M232.068 23.6953H227.637V30.8495H232.068V23.6953Z" fill="#565656"/>
    <path d="M222.677 23.6953H218.246V30.8495H222.677V23.6953Z" fill="#565656"/>
    <path d="M213.294 23.6953H208.863V30.8495H213.294V23.6953Z" fill="#565656"/>
    <path d="M292.845 23.6953H288.414V30.8495H292.845V23.6953Z" fill="#565656"/>
    <path d="M283.458 23.6953H279.027V30.8495H283.458V23.6953Z" fill="#565656"/>
    <path d="M274.068 23.6953H269.637V30.8495H274.068V23.6953Z" fill="#565656"/>
    <path d="M264.669 23.6953H260.238V30.8495H264.669V23.6953Z" fill="#565656"/>
    <path d="M255.282 23.6953H250.852V30.8495H255.282V23.6953Z" fill="#565656"/>
    <path d="M262.559 0.566406H245.801V15.6082H262.559V0.566406Z" fill="#6D423E"/>
    <path d="M262.549 15.6133H258.152V29.6795H262.549V15.6133Z" fill="#AF9D80"/>
    <path d="M254.495 15.6133H245.707V29.6795H254.495V15.6133Z" fill="#AF9D80"/>
    <path d="M237.823 15.6133H229.035V29.6795H237.823V15.6133Z" fill="#AF9D80"/>
    <path d="M245.793 0.566406H229.035V15.6082H245.793V0.566406Z" fill="#B77B66"/>
    <path d="M245.701 15.6074H244.891V29.6736H245.701V15.6074Z" fill="#E0CCA9"/>
    <path d="M258.158 15.6074H257.348V29.6736H258.158V15.6074Z" fill="#E0CCA9"/>
    <path d="M229.854 15.6074H229.043V29.6736H229.854V15.6074Z" fill="#E0CCA9"/>
    <path d="M260.237 29.6758H154.395V44.849H260.237V29.6758Z" fill="#E0CCA9"/>
    <path d="M293.18 29.6777H260.238V44.851H293.18V29.6777Z" fill="#6D423E"/>
    <path d="M231.044 34.2754H226.613V41.4296H231.044V34.2754Z" fill="#565656"/>
    <path d="M222.337 34.2754H217.906V41.4296H222.337V34.2754Z" fill="#565656"/>
    <path d="M196.161 34.2754H191.73V41.4296H196.161V34.2754Z" fill="#565656"/>
    <path d="M187.431 34.2754H183V41.4296H187.431V34.2754Z" fill="#565656"/>
    <path d="M213.784 29.6777H200.438V44.851H213.784V29.6777Z" fill="#B77B66"/>
    <path d="M180.973 29.6777H154.395V44.851H180.973V29.6777Z" fill="#B77B66"/>
    <path d="M260.35 29.6777H233.434V44.851H260.35V29.6777Z" fill="#B77B66"/>
    <path d="M205.13 34.2754H202.914V37.8525H205.13V34.2754Z" fill="#565656"/>
    <path d="M211.149 34.2754H208.934V37.8525H211.149V34.2754Z" fill="#565656"/>
    <path d="M178.716 34.2754H174.285V41.4296H178.716V34.2754Z" fill="#565656"/>
    <path d="M169.997 34.2754H165.566V41.4296H169.997V34.2754Z" fill="#565656"/>
    <path d="M161.271 34.2754H156.84V41.4296H161.271V34.2754Z" fill="#565656"/>
    <path d="M257.212 34.2754H252.781V41.4296H257.212V34.2754Z" fill="#565656"/>
    <path d="M248.493 34.2754H244.062V41.4296H248.493V34.2754Z" fill="#565656"/>
    <path d="M239.763 34.2754H235.332V41.4296H239.763V34.2754Z" fill="#565656"/>
    <path d="M292.394 43.2168H96.5234V90.8866H292.394V43.2168Z" fill="#799FA8"/>
    <path d="M353.36 43.2168H292.398V90.8866H353.36V43.2168Z" fill="#70ACC4"/>
    <path d="M272.585 53.9277H268.91V62.8138H272.585V53.9277Z" fill="#565656"/>
    <path d="M277.109 53.9277H273.434V62.8138H277.109V53.9277Z" fill="#565656"/>
    <path d="M281.745 53.9277H278.07V62.8138H281.745V53.9277Z" fill="#565656"/>
    <path d="M286.261 53.9277H282.586V62.8138H286.261V53.9277Z" fill="#565656"/>
    <path d="M277.11 49.6992H268.91V52.7466H277.11V49.6992Z" fill="#565656"/>
    <path d="M286.27 49.6992H278.07V52.7466H286.27V49.6992Z" fill="#565656"/>
    <path d="M272.585 81.0684H268.91V89.9544H272.585V81.0684Z" fill="#565656"/>
    <path d="M277.109 81.0684H273.434V89.9544H277.109V81.0684Z" fill="#565656"/>
    <path d="M281.745 81.0684H278.07V89.9544H281.745V81.0684Z" fill="#565656"/>
    <path d="M286.261 81.0684H282.586V89.9544H286.261V81.0684Z" fill="#565656"/>
    <path d="M277.11 76.8613H268.91V79.9087H277.11V76.8613Z" fill="#565656"/>
    <path d="M286.27 76.8613H278.07V79.9087H286.27V76.8613Z" fill="#565656"/>
    <path d="M178.493 51.748H170.293V64.9875H178.493V51.748Z" fill="#565656"/>
    <path d="M161.102 51.748H152.902V64.9875H161.102V51.748Z" fill="#565656"/>
    <path d="M126.352 51.748H118.152V64.9875H126.352V51.748Z" fill="#565656"/>
    <path d="M108.981 51.748H100.781V64.9875H108.981V51.748Z" fill="#565656"/>
    <path d="M256.208 51.748H248.008V64.9875H256.208V51.748Z" fill="#565656"/>
    <path d="M221.446 51.748H213.246V64.9875H221.446V51.748Z" fill="#565656"/>
    <path d="M204.071 51.748H195.871V64.9875H204.071V51.748Z" fill="#565656"/>
    <path d="M186.7 51.748H178.5V64.9875H186.7V51.748Z" fill="#565656"/>
    <path d="M169.137 8.94531H138.125V36.7815H169.137V8.94531Z" fill="#29ABE2"/>
    <path d="M200.149 8.94531H169.137V36.7815H200.149V8.94531Z" fill="#3399CC"/>
    <path d="M200.145 36.7832H192.008V62.814H200.145V36.7832Z" fill="#70ACC4"/>
    <path d="M185.223 36.7832H168.961V62.814H185.223V36.7832Z" fill="#70ACC4"/>
    <path d="M168.957 36.7832H167.457V62.814H168.957V36.7832Z" fill="#A4D0E0"/>
    <path d="M192 36.7832H190.5V62.814H192V36.7832Z" fill="#A4D0E0"/>
    <path d="M195.871 62.8145H0V90.8939H195.871V62.8145Z" fill="#A4D0E0"/>
    <path d="M256.832 62.8145H195.871V90.8939H256.832V62.8145Z" fill="#70ACC4"/>
    <path d="M190.251 71.3301H182.051V84.5696H190.251V71.3301Z" fill="#565656"/>
    <path d="M172.883 71.3301H164.684V84.5696H172.883V71.3301Z" fill="#565656"/>
    <path d="M134.376 71.3301H126.176V84.5696H134.376V71.3301Z" fill="#565656"/>
    <path d="M116.993 71.3301H108.793V84.5696H116.993V71.3301Z" fill="#565656"/>
    <path d="M82.2428 71.3301H74.043V84.5696H82.2428V71.3301Z" fill="#565656"/>
    <path d="M91.7718 71.3301H87.6719V77.9498H91.7718V71.3301Z" fill="#565656"/>
    <path d="M103.366 71.3301H99.2656V77.9498H103.366V71.3301Z" fill="#565656"/>
    <path d="M64.8522 71.3301H56.6523V84.5696H64.8522V71.3301Z" fill="#565656"/>
    <path d="M12.7155 71.3301H4.51562V84.5696H12.7155V71.3301Z" fill="#565656"/>
    <path d="M51.9996 62.8145H34.75V90.8939H51.9996V62.8145Z" fill="#3C88A0"/>
    <path d="M156.273 62.8145H139.023V90.8939H156.273V62.8145Z" fill="#3C88A0"/>
    <path d="M243.605 43.2168H226.355V62.8071H243.605V43.2168Z" fill="#3C88A0"/>
    <path d="M138.117 43.2168H130.93V62.8071H138.117V43.2168Z" fill="#3C88A0"/>
    <path d="M30.0944 71.3301H21.8945V84.5696H30.0944V71.3301Z" fill="#565656"/>
    <path d="M47.4772 71.3301H39.2773V84.5696H47.4772V71.3301Z" fill="#565656"/>
    <path d="M151.743 71.3301H143.543V84.5696H151.743V71.3301Z" fill="#565656"/>
    <path d="M238.837 51.748H230.637V62.8108H238.837V51.748Z" fill="#565656"/>
    <path d="M154.395 36.7832H138.133V62.814H154.395V36.7832Z" fill="#70ACC4"/>
    <path d="M139.633 36.7832H138.133V62.814H139.633V36.7832Z" fill="#A4D0E0"/>
    <path d="M138.123 51.748H135.523V62.8108H138.123V51.748Z" fill="#565656"/>
</svg>