<svg width="198" height="47" viewBox="0 0 198 47" fill="none" xmlns="http://www.w3.org/2000/svg">
<path d="M6.42435 39.9909C5.14384 39.9909 4.02135 39.7896 3.05143 39.3815C2.08696 38.9788 1.335 38.3965 0.801001 37.6402C0.267001 36.8838 0 35.9696 0 34.9031C0 33.7604 0.299696 32.819 0.904533 32.0735C1.50937 31.328 2.33761 30.7512 3.40016 30.3376C4.46271 29.9295 5.67239 29.6574 7.02918 29.5323C9.04531 29.331 10.4729 29.1351 11.2957 28.9392C12.124 28.7487 12.5381 28.4331 12.5381 27.9978V27.9651C12.5381 27.0999 12.1676 26.4469 11.432 25.9953C10.6963 25.5436 9.64469 25.326 8.277 25.326C6.83302 25.326 5.72143 25.5817 4.93677 26.0878C4.15212 26.5939 3.7598 27.3992 3.7598 28.493H0.348734C0.348734 27.1924 0.686573 26.0878 1.36769 25.1845C2.04337 24.2758 2.98059 23.5901 4.17937 23.1113C5.37814 22.6379 6.74584 22.3984 8.29335 22.3984C9.71553 22.3984 11.0069 22.6161 12.1785 23.046C13.35 23.4759 14.2818 24.118 14.9738 24.9723C15.6658 25.8266 16.0145 26.8877 16.0145 28.1556V36.2635C16.0145 36.6553 16.0309 37.0416 16.0636 37.4062C16.0963 37.7708 16.1562 38.1027 16.238 38.3911C16.336 38.723 16.4505 38.9951 16.5812 39.2073C16.7175 39.4196 16.8264 39.5719 16.9082 39.6535H13.4481C13.3827 39.5882 13.2901 39.4522 13.1702 39.2454C13.0449 39.0387 12.9359 38.7938 12.8432 38.5163C12.7452 38.2496 12.6743 37.9449 12.6253 37.5966C12.5762 37.2484 12.5544 36.8729 12.5544 36.4702L13.1974 36.9165C12.8759 37.5368 12.3964 38.0755 11.748 38.5326C11.0996 38.9897 10.3258 39.3488 9.42674 39.6046C8.52221 39.8603 7.52504 39.9909 6.42435 39.9909ZM7.14361 37.1124C8.13533 37.1124 9.03985 36.9545 9.8572 36.6389C10.6745 36.3233 11.3284 35.8445 11.8188 35.1969C12.3092 34.5494 12.5544 33.7386 12.5544 32.7591V29.9458L13.3718 31.0178C12.6907 31.2845 11.8515 31.5021 10.8653 31.6654C9.879 31.8286 8.86004 31.9647 7.81383 32.0735C6.36985 32.2041 5.29096 32.449 4.5608 32.819C3.83608 33.189 3.471 33.7985 3.471 34.6528C3.471 35.5071 3.77069 36.0893 4.37553 36.5029C4.98037 36.911 5.90124 37.1178 7.13816 37.1178L7.14361 37.1124Z" fill="black"/>
<path d="M19.4443 39.6481V22.6596H22.9208V39.6481H19.4443ZM31.552 39.6481V29.7445C31.552 28.912 31.4212 28.1773 31.1651 27.5461C30.909 26.9095 30.4894 26.4143 29.9009 26.0606C29.3124 25.7014 28.5278 25.5273 27.547 25.5273C26.6806 25.5273 25.9014 25.7395 25.1985 26.1694C24.501 26.5939 23.9452 27.1761 23.5311 27.9053C23.1224 28.6344 22.9153 29.467 22.9153 30.3921L21.4278 29.6574C21.4278 28.2807 21.7547 27.0455 22.4031 25.9572C23.0516 24.8689 23.9288 23.9982 25.0241 23.3561C26.1193 22.714 27.3181 22.3984 28.6204 22.3984C29.9227 22.3984 31.116 22.6596 32.0696 23.1766C33.0232 23.6935 33.7588 24.4281 34.2656 25.3858C34.7723 26.3381 35.0284 27.4808 35.0284 28.8031V39.6644H31.552V39.6481Z" fill="black"/>
<path d="M45.6647 39.9842C44.2643 39.9842 42.9784 39.6469 41.8068 38.9667C40.6299 38.2919 39.6926 37.2907 38.9897 35.9684C38.2868 34.6461 37.9326 33.0299 37.9326 31.12C37.9326 29.21 38.2923 27.67 39.0061 26.3695C39.7199 25.069 40.668 24.0786 41.8395 23.4039C43.0165 22.7237 44.2916 22.3863 45.6702 22.3863C47.0488 22.3863 48.2257 22.7074 49.3646 23.344C50.5034 23.9807 51.4188 24.8731 52.1109 26.0049C52.8029 27.1368 53.1516 28.4482 53.1516 29.9337V30.1568L51.1355 30.2221V30.0153C51.1355 29.1284 50.9121 28.3448 50.4653 27.6537C50.0185 26.9681 49.4245 26.4239 48.6943 26.0212C47.9642 25.624 47.185 25.4227 46.3622 25.4227C44.9836 25.4227 43.8339 25.8852 42.9021 26.8048C41.9703 27.7299 41.5071 29.1665 41.5071 31.1145C41.5071 33.0626 41.9758 34.4937 42.9075 35.4242C43.8393 36.3602 44.9945 36.8227 46.3567 36.8227C47.2122 36.8227 48.0023 36.6159 48.727 36.2078C49.4518 35.7997 50.0348 35.2338 50.4707 34.5209C50.9066 33.8081 51.13 32.9919 51.13 32.0722L53.1462 32.1539C53.1462 33.6231 52.8138 34.9508 52.1436 36.1371C51.4788 37.3179 50.5797 38.2538 49.4518 38.9449C48.3238 39.6305 47.0597 39.9788 45.6647 39.9788V39.9842ZM51.1246 39.6469V14.6484H54.6174V39.6523H51.1246V39.6469Z" fill="black"/>
<path d="M58.273 39.6535V22.6651H61.7495V28.0848L60.8177 27.6713C60.894 26.9802 61.0684 26.3163 61.3463 25.6906C61.6242 25.0593 61.9947 24.4989 62.4578 24.0037C62.921 23.5085 63.4986 23.1167 64.1797 22.8283C64.8608 22.5399 65.6509 22.3984 66.55 22.3984C67.2312 22.3984 67.7869 22.4529 68.2065 22.5562C68.6261 22.6651 68.8876 22.7467 68.9857 22.812L68.2501 26.0769C68.1411 26.0007 67.9286 25.9082 67.6017 25.7885C67.2747 25.6688 66.8225 25.6144 66.2503 25.6144C65.3731 25.6144 64.6483 25.7722 64.0707 26.0769C63.4932 26.3871 63.0354 26.7952 62.6922 27.3067C62.3489 27.8182 62.1091 28.3732 61.962 28.9773C61.8203 29.5813 61.744 30.1853 61.744 30.7947V39.659H58.2676L58.273 39.6535Z" fill="black"/>
<path d="M71.8907 32.3699V29.6655H84.4179L83.9384 30.4654V30.0791C83.9384 29.2139 83.7531 28.4194 83.3771 27.6902C83.0012 26.9611 82.4454 26.3734 81.7043 25.9326C80.9632 25.4918 80.0369 25.2687 78.9253 25.2687C77.8137 25.2687 76.8384 25.5082 76.0047 25.9816C75.1655 26.455 74.5171 27.1297 74.0485 27.995C73.5853 28.8656 73.351 29.9049 73.351 31.1238C73.351 32.3427 73.5744 33.4256 74.0212 34.3126C74.4681 35.205 75.1165 35.8906 75.9611 36.3695C76.8057 36.8483 77.8137 37.0878 78.9907 37.0878C79.8135 37.0878 80.5273 37.0061 81.1267 36.8374C81.7316 36.6742 82.2274 36.4511 82.6143 36.1736C83.0012 35.8961 83.3009 35.5968 83.5025 35.2703C83.7041 34.9438 83.824 34.6227 83.8567 34.3017H87.3167C87.2514 34.9928 87.028 35.6784 86.6356 36.3586C86.2433 37.0388 85.6984 37.6482 84.9846 38.1978C84.2762 38.7474 83.4098 39.1827 82.3909 39.5092C81.3719 39.8357 80.2004 39.999 78.8763 39.999C77.1054 39.999 75.5524 39.6235 74.2174 38.878C72.8824 38.1325 71.8417 37.0932 71.0951 35.7655C70.3486 34.4377 69.9727 32.9141 69.9727 31.2C69.9727 29.4859 70.3541 27.9133 71.1115 26.591C71.8689 25.2687 72.9205 24.2349 74.2664 23.4948C75.6123 22.7548 77.1544 22.3847 78.8981 22.3847C80.6418 22.3847 82.2056 22.7602 83.5025 23.5057C84.7993 24.2512 85.8019 25.2796 86.5049 26.591C87.2078 27.9024 87.562 29.4098 87.562 31.1184C87.562 31.3197 87.5565 31.5537 87.5456 31.8204C87.5347 32.087 87.5184 32.2666 87.4966 32.3645H71.8961L71.8907 32.3699ZM76.713 20.0993L80.5437 16.0508H83.4916L79.2795 20.0993H76.7185H76.713Z" fill="black"/>
<path d="M98.8284 39.9661C97.0793 39.9661 95.5318 39.5852 94.1913 38.8288C92.8509 38.0724 91.8047 37.0277 91.0527 35.6999C90.3008 34.3722 89.9248 32.8486 89.9248 31.1345C89.9248 29.4204 90.3008 27.9185 91.0527 26.6017C91.8047 25.2848 92.8509 24.2564 94.1913 23.5163C95.5318 22.7763 97.0793 22.4062 98.8284 22.4062C100.578 22.4062 102.125 22.7763 103.466 23.5163C104.806 24.2564 105.852 25.2848 106.604 26.6017C107.356 27.9185 107.732 29.4313 107.732 31.1345C107.732 32.8377 107.356 34.3722 106.604 35.6999C105.852 37.0277 104.806 38.0724 103.466 38.8288C102.125 39.5852 100.578 39.9661 98.8284 39.9661ZM98.8284 36.9896C99.8964 36.9896 100.834 36.7501 101.646 36.2713C102.457 35.7924 103.095 35.1122 103.553 34.2307C104.01 33.3492 104.239 32.3207 104.239 31.1345C104.239 29.9482 104.01 28.9415 103.553 28.0818C103.095 27.2166 102.457 26.5527 101.646 26.0847C100.834 25.6168 99.8964 25.3828 98.8284 25.3828C97.7604 25.3828 96.8341 25.6168 96.0168 26.0847C95.1994 26.5527 94.5619 27.222 94.1042 28.0818C93.6465 28.947 93.4176 29.9645 93.4176 31.1345C93.4176 32.3044 93.6465 33.3492 94.1042 34.2307C94.5619 35.1122 95.1994 35.7924 96.0168 36.2713C96.8341 36.7501 97.7713 36.9896 98.8284 36.9896Z" fill="black"/>
<path d="M114.463 14.6484V39.6523H111.035V14.6484H114.463Z" fill="black"/>
<path d="M120.087 19.1465C119.487 19.1465 118.975 18.9833 118.539 18.6568C118.103 18.3303 117.891 17.8787 117.891 17.3073C117.891 16.7359 118.109 16.2952 118.539 15.9741C118.97 15.6531 119.487 15.4844 120.087 15.4844C120.686 15.4844 121.182 15.6476 121.618 15.9741C122.054 16.3006 122.266 16.7468 122.266 17.3073C122.266 17.8678 122.048 18.3357 121.618 18.6568C121.187 18.9778 120.675 19.1465 120.087 19.1465ZM118.359 39.6502V22.6618H121.787V39.6502H118.359Z" fill="black"/>
<path d="M139.865 22.6602L134.356 39.6486H129.741L124.085 22.6602H127.67L132.318 38.1903H131.773L136.274 22.6602H139.86H139.865Z" fill="black"/>
<path d="M142.476 32.3719V29.6675H155.003L154.523 30.4674V30.081C154.523 29.2158 154.338 28.4214 153.962 27.6922C153.586 26.9631 153.03 26.3754 152.289 25.9346C151.548 25.4938 150.622 25.2707 149.51 25.2707C148.399 25.2707 147.423 25.5102 146.59 25.9836C145.75 26.457 145.102 27.1317 144.633 27.9969C144.17 28.8676 143.936 29.9069 143.936 31.1258C143.936 32.3447 144.159 33.4276 144.606 34.3146C145.053 35.207 145.701 35.8926 146.546 36.3715C147.391 36.8503 148.399 37.0897 149.576 37.0897C150.398 37.0897 151.112 37.0081 151.712 36.8394C152.317 36.6762 152.812 36.4531 153.199 36.1756C153.586 35.8981 153.886 35.5988 154.087 35.2723C154.289 34.9458 154.409 34.6247 154.442 34.3037H157.902C157.836 34.9948 157.613 35.6804 157.221 36.3606C156.828 37.0408 156.283 37.6502 155.57 38.1998C154.861 38.7494 153.995 39.1847 152.976 39.5112C151.957 39.8377 150.785 40.001 149.461 40.001C147.69 40.001 146.137 39.6255 144.802 38.88C143.467 38.1345 142.427 37.0952 141.68 35.7675C140.934 34.4397 140.558 32.9161 140.558 31.202C140.558 29.4879 140.939 27.9153 141.696 26.593C142.454 25.2707 143.506 24.2368 144.851 23.4968C146.197 22.7567 147.739 22.3867 149.483 22.3867C151.227 22.3867 152.791 22.7622 154.087 23.5077C155.384 24.2532 156.387 25.2816 157.09 26.593C157.793 27.9044 158.147 29.4117 158.147 31.1204C158.147 31.3217 158.141 31.5557 158.131 31.8223C158.12 32.089 158.103 32.2685 158.082 32.3665H142.481L142.476 32.3719Z" fill="black"/>
<path d="M162.977 19.1465C162.378 19.1465 161.866 18.9833 161.43 18.6568C160.994 18.3303 160.781 17.8787 160.781 17.3073C160.781 16.7359 160.999 16.2952 161.43 15.9741C161.86 15.6531 162.378 15.4844 162.977 15.4844C163.577 15.4844 164.072 15.6476 164.508 15.9741C164.944 16.3006 165.157 16.7468 165.157 17.3073C165.157 17.8678 164.939 18.3357 164.508 18.6568C164.078 18.9778 163.566 19.1465 162.977 19.1465ZM161.25 39.6502V22.6618H164.677V39.6502H161.25Z" fill="black"/>
<path d="M168.487 39.6535V22.6651H171.963V28.0848L171.032 27.6713C171.108 26.9802 171.282 26.3163 171.56 25.6906C171.838 25.0593 172.209 24.4989 172.672 24.0037C173.135 23.5085 173.712 23.1167 174.394 22.8283C175.075 22.5399 175.865 22.3984 176.764 22.3984C177.445 22.3984 178.001 22.4529 178.42 22.5562C178.84 22.6651 179.101 22.7467 179.2 22.812L178.464 26.0769C178.355 26.0007 178.142 25.9082 177.816 25.7885C177.489 25.6688 177.036 25.6144 176.464 25.6144C175.587 25.6144 174.862 25.7722 174.285 26.0769C173.707 26.3871 173.249 26.7952 172.906 27.3067C172.563 27.8182 172.323 28.3732 172.176 28.9773C172.034 29.5813 171.958 30.1853 171.958 30.7947V39.659H168.481L168.487 39.6535Z" fill="black"/>
<path d="M186.764 39.9909C185.484 39.9909 184.361 39.7896 183.391 39.3815C182.427 38.9788 181.675 38.3965 181.141 37.6402C180.607 36.8838 180.34 35.9696 180.34 34.9031C180.34 33.7604 180.64 32.819 181.244 32.0735C181.849 31.328 182.677 30.7512 183.74 30.3376C184.803 29.9295 186.012 29.6574 187.369 29.5323C189.385 29.331 190.813 29.1351 191.636 28.9392C192.464 28.7487 192.878 28.4331 192.878 27.9978V27.9651C192.878 27.0999 192.507 26.4469 191.772 25.9953C191.036 25.5436 189.985 25.326 188.617 25.326C187.173 25.326 186.061 25.5817 185.277 26.0878C184.492 26.5939 184.1 27.3992 184.1 28.493H180.689C180.689 27.1924 181.026 26.0878 181.708 25.1845C182.383 24.2758 183.32 23.5901 184.519 23.1113C185.718 22.6379 187.086 22.3984 188.633 22.3984C190.055 22.3984 191.347 22.6161 192.518 23.046C193.69 23.4759 194.622 24.118 195.314 24.9723C196.006 25.8266 196.354 26.8877 196.354 28.1556V36.2635C196.354 36.6553 196.371 37.0416 196.403 37.4062C196.436 37.7708 196.496 38.1027 196.578 38.3911C196.676 38.723 196.79 38.9951 196.921 39.2073C197.057 39.4196 197.166 39.5719 197.248 39.6535H193.788C193.723 39.5882 193.63 39.4522 193.51 39.2454C193.385 39.0387 193.276 38.7938 193.183 38.5163C193.085 38.2496 193.014 37.9449 192.965 37.5966C192.916 37.2484 192.894 36.8729 192.894 36.4702L193.537 36.9165C193.216 37.5368 192.736 38.0755 192.088 38.5326C191.439 38.9897 190.666 39.3488 189.767 39.6046C188.862 39.8603 187.865 39.9909 186.764 39.9909ZM187.483 37.1124C188.475 37.1124 189.38 36.9545 190.197 36.6389C191.014 36.3233 191.668 35.8445 192.159 35.1969C192.649 34.5494 192.894 33.7386 192.894 32.7591V29.9458L193.712 31.0178C193.031 31.2845 192.191 31.5021 191.205 31.6654C190.219 31.8286 189.2 31.9647 188.154 32.0735C186.71 32.2041 185.631 32.449 184.901 32.819C184.176 33.189 183.811 33.7985 183.811 34.6528C183.811 35.5071 184.111 36.0893 184.715 36.5029C185.32 36.911 186.241 37.1178 187.478 37.1178L187.483 37.1124Z" fill="black"/>
</svg>
